<svg xmlns="http://www.w3.org/2000/svg" viewBox="0 0 1200 400" width="1200" height="400" role="img">
<rect width="1200" height="400" fill="#f4f9fe"/>
<g opacity=".5"><line x1="0" y1="0" x2="0" y2="400" stroke="#d8dee6" stroke-width="1"/><line x1="60" y1="0" x2="60" y2="400" stroke="#d8dee6" stroke-width="1"/><line x1="120" y1="0" x2="120" y2="400" stroke="#d8dee6" stroke-width="1"/><line x1="180" y1="0" x2="180" y2="400" stroke="#d8dee6" stroke-width="1"/><line x1="240" y1="0" x2="240" y2="400" stroke="#d8dee6" stroke-width="1"/><line x1="300" y1="0" x2="300" y2="400" stroke="#d8dee6" stroke-width="1"/><line x1="360" y1="0" x2="360" y2="400" stroke="#d8dee6" stroke-width="1"/><line x1="420" y1="0" x2="420" y2="400" stroke="#d8dee6" stroke-width="1"/><line x1="480" y1="0" x2="480" y2="400" stroke="#d8dee6" stroke-width="1"/><line x1="540" y1="0" x2="540" y2="400" stroke="#d8dee6" stroke-width="1"/><line x1="600" y1="0" x2="600" y2="400" stroke="#d8dee6" stroke-width="1"/><line x1="660" y1="0" x2="660" y2="400" stroke="#d8dee6" stroke-width="1"/><line x1="720" y1="0" x2="720" y2="400" stroke="#d8dee6" stroke-width="1"/><line x1="780" y1="0" x2="780" y2="400" stroke="#d8dee6" stroke-width="1"/><line x1="840" y1="0" x2="840" y2="400" stroke="#d8dee6" stroke-width="1"/><line x1="900" y1="0" x2="900" y2="400" stroke="#d8dee6" stroke-width="1"/><line x1="960" y1="0" x2="960" y2="400" stroke="#d8dee6" stroke-width="1"/><line x1="1020" y1="0" x2="1020" y2="400" stroke="#d8dee6" stroke-width="1"/><line x1="1080" y1="0" x2="1080" y2="400" stroke="#d8dee6" stroke-width="1"/><line x1="1140" y1="0" x2="1140" y2="400" stroke="#d8dee6" stroke-width="1"/><line x1="1200" y1="0" x2="1200" y2="400" stroke="#d8dee6" stroke-width="1"/></g>

<rect x="490" y="40" width="220" height="330" rx="26" fill="#12304f"/>
<rect x="502" y="58" width="196" height="294" rx="16" fill="#ffffff"/>
<rect x="528" y="84" width="90" height="10" rx="5.0" fill="#8896a8" opacity=".4"/>
<circle cx="600" cy="150" r="34" fill="#e9f1fb" stroke="#146bc5" stroke-width="2"/>
<rect x="548" y="204" width="104" height="12" rx="6.0" fill="#12304f" opacity=".8"/><rect x="566" y="226" width="68" height="10" rx="5.0" fill="#8896a8" opacity=".45"/>
<rect x="522" y="258" width="156" height="34" rx="8" fill="#146bc5"/>
<rect x="522" y="300" width="74" height="32" rx="8" fill="#ffffff" stroke="#d8dee6"/>
<rect x="604" y="300" width="74" height="32" rx="8" fill="#ffffff" stroke="#d8dee6"/>
<g opacity="0.75"><rect x="120" y="70" width="330" height="34" rx="6" fill="#ffffff" stroke="#d8dee6"/><circle cx="142" cy="87" r="6" fill="#8896a8" opacity=".7"/><rect x="160" y="82" width="170" height="10" rx="5" fill="#8896a8" opacity=".5"/></g><g opacity="0.64"><rect x="120" y="118" width="330" height="34" rx="6" fill="#ffffff" stroke="#d8dee6"/><circle cx="142" cy="135" r="6" fill="#146bc5" opacity=".7"/><rect x="160" y="130" width="156" height="10" rx="5" fill="#8896a8" opacity=".5"/></g><g opacity="0.53"><rect x="120" y="166" width="330" height="34" rx="6" fill="#ffffff" stroke="#d8dee6"/><circle cx="142" cy="183" r="6" fill="#8896a8" opacity=".7"/><rect x="160" y="178" width="142" height="10" rx="5" fill="#8896a8" opacity=".5"/></g><g opacity="0.42"><rect x="120" y="214" width="330" height="34" rx="6" fill="#ffffff" stroke="#d8dee6"/><circle cx="142" cy="231" r="6" fill="#146bc5" opacity=".7"/><rect x="160" y="226" width="128" height="10" rx="5" fill="#8896a8" opacity=".5"/></g><g opacity="0.31"><rect x="120" y="262" width="330" height="34" rx="6" fill="#ffffff" stroke="#d8dee6"/><circle cx="142" cy="279" r="6" fill="#8896a8" opacity=".7"/><rect x="160" y="274" width="114" height="10" rx="5" fill="#8896a8" opacity=".5"/></g><g opacity="0.19999999999999996"><rect x="120" y="310" width="330" height="34" rx="6" fill="#ffffff" stroke="#d8dee6"/><circle cx="142" cy="327" r="6" fill="#146bc5" opacity=".7"/><rect x="160" y="322" width="100" height="10" rx="5" fill="#8896a8" opacity=".5"/></g>
<g opacity="0.75"><rect x="750" y="70" width="330" height="34" rx="6" fill="#ffffff" stroke="#d8dee6"/><circle cx="772" cy="87" r="6" fill="#146bc5" opacity=".7"/><rect x="790" y="82" width="150" height="10" rx="5" fill="#8896a8" opacity=".5"/></g><g opacity="0.64"><rect x="750" y="118" width="330" height="34" rx="6" fill="#ffffff" stroke="#d8dee6"/><circle cx="772" cy="135" r="6" fill="#8896a8" opacity=".7"/><rect x="790" y="130" width="162" height="10" rx="5" fill="#8896a8" opacity=".5"/></g><g opacity="0.53"><rect x="750" y="166" width="330" height="34" rx="6" fill="#ffffff" stroke="#d8dee6"/><circle cx="772" cy="183" r="6" fill="#146bc5" opacity=".7"/><rect x="790" y="178" width="174" height="10" rx="5" fill="#8896a8" opacity=".5"/></g><g opacity="0.42"><rect x="750" y="214" width="330" height="34" rx="6" fill="#ffffff" stroke="#d8dee6"/><circle cx="772" cy="231" r="6" fill="#8896a8" opacity=".7"/><rect x="790" y="226" width="186" height="10" rx="5" fill="#8896a8" opacity=".5"/></g><g opacity="0.31"><rect x="750" y="262" width="330" height="34" rx="6" fill="#ffffff" stroke="#d8dee6"/><circle cx="772" cy="279" r="6" fill="#146bc5" opacity=".7"/><rect x="790" y="274" width="198" height="10" rx="5" fill="#8896a8" opacity=".5"/></g><g opacity="0.19999999999999996"><rect x="750" y="310" width="330" height="34" rx="6" fill="#ffffff" stroke="#d8dee6"/><circle cx="772" cy="327" r="6" fill="#8896a8" opacity=".7"/><rect x="790" y="322" width="210" height="10" rx="5" fill="#8896a8" opacity=".5"/></g>
</svg>