<svg xmlns="http://www.w3.org/2000/svg" viewBox="0 0 1200 400" width="1200" height="400" role="img">
<rect width="1200" height="400" fill="#f4f9fe"/>
<g opacity=".5"><line x1="0" y1="0" x2="0" y2="400" stroke="#d8dee6" stroke-width="1"/><line x1="60" y1="0" x2="60" y2="400" stroke="#d8dee6" stroke-width="1"/><line x1="120" y1="0" x2="120" y2="400" stroke="#d8dee6" stroke-width="1"/><line x1="180" y1="0" x2="180" y2="400" stroke="#d8dee6" stroke-width="1"/><line x1="240" y1="0" x2="240" y2="400" stroke="#d8dee6" stroke-width="1"/><line x1="300" y1="0" x2="300" y2="400" stroke="#d8dee6" stroke-width="1"/><line x1="360" y1="0" x2="360" y2="400" stroke="#d8dee6" stroke-width="1"/><line x1="420" y1="0" x2="420" y2="400" stroke="#d8dee6" stroke-width="1"/><line x1="480" y1="0" x2="480" y2="400" stroke="#d8dee6" stroke-width="1"/><line x1="540" y1="0" x2="540" y2="400" stroke="#d8dee6" stroke-width="1"/><line x1="600" y1="0" x2="600" y2="400" stroke="#d8dee6" stroke-width="1"/><line x1="660" y1="0" x2="660" y2="400" stroke="#d8dee6" stroke-width="1"/><line x1="720" y1="0" x2="720" y2="400" stroke="#d8dee6" stroke-width="1"/><line x1="780" y1="0" x2="780" y2="400" stroke="#d8dee6" stroke-width="1"/><line x1="840" y1="0" x2="840" y2="400" stroke="#d8dee6" stroke-width="1"/><line x1="900" y1="0" x2="900" y2="400" stroke="#d8dee6" stroke-width="1"/><line x1="960" y1="0" x2="960" y2="400" stroke="#d8dee6" stroke-width="1"/><line x1="1020" y1="0" x2="1020" y2="400" stroke="#d8dee6" stroke-width="1"/><line x1="1080" y1="0" x2="1080" y2="400" stroke="#d8dee6" stroke-width="1"/><line x1="1140" y1="0" x2="1140" y2="400" stroke="#d8dee6" stroke-width="1"/><line x1="1200" y1="0" x2="1200" y2="400" stroke="#d8dee6" stroke-width="1"/></g>
<rect x="150" y="90" width="102" height="44" rx="8" fill="#ffffff" stroke="#d8dee6" stroke-width="1"/><rect x="164" y="108" width="62" height="9" rx="4" fill="#8896a8" opacity="0.45"/><rect x="150" y="148" width="102" height="44" rx="8" fill="#ffffff" stroke="#d8dee6" stroke-width="1"/><rect x="164" y="166" width="62" height="9" rx="4" fill="#8896a8" opacity="0.45"/><rect x="150" y="206" width="102" height="44" rx="8" fill="#ffffff" stroke="#d8dee6" stroke-width="1"/><rect x="164" y="224" width="62" height="9" rx="4" fill="#8896a8" opacity="0.45"/><rect x="150" y="264" width="102" height="44" rx="8" fill="#ffffff" stroke="#d8dee6" stroke-width="1"/><rect x="164" y="282" width="62" height="9" rx="4" fill="#8896a8" opacity="0.45"/><rect x="268" y="90" width="102" height="44" rx="8" fill="#ffffff" stroke="#d8dee6" stroke-width="1"/><rect x="282" y="108" width="50" height="9" rx="4" fill="#8896a8" opacity="0.45"/><rect x="268" y="148" width="102" height="44" rx="8" fill="#ffffff" stroke="#d8dee6" stroke-width="1"/><rect x="282" y="166" width="50" height="9" rx="4" fill="#8896a8" opacity="0.45"/><rect x="268" y="206" width="102" height="44" rx="8" fill="#ffffff" stroke="#d8dee6" stroke-width="1"/><rect x="282" y="224" width="50" height="9" rx="4" fill="#8896a8" opacity="0.45"/><rect x="268" y="264" width="102" height="44" rx="8" fill="#ffffff" stroke="#d8dee6" stroke-width="1"/><rect x="282" y="282" width="50" height="9" rx="4" fill="#8896a8" opacity="0.45"/><rect x="386" y="90" width="102" height="44" rx="8" fill="#ffffff" stroke="#d8dee6" stroke-width="1"/><rect x="400" y="108" width="38" height="9" rx="4" fill="#8896a8" opacity="0.45"/><rect x="386" y="148" width="102" height="44" rx="8" fill="#ffffff" stroke="#d8dee6" stroke-width="1"/><rect x="400" y="166" width="38" height="9" rx="4" fill="#8896a8" opacity="0.45"/><rect x="386" y="206" width="102" height="44" rx="8" fill="#ffffff" stroke="#d8dee6" stroke-width="1"/><rect x="400" y="224" width="38" height="9" rx="4" fill="#8896a8" opacity="0.45"/><rect x="386" y="264" width="102" height="44" rx="8" fill="#ffffff" stroke="#d8dee6" stroke-width="1"/><rect x="400" y="282" width="38" height="9" rx="4" fill="#8896a8" opacity="0.45"/><rect x="504" y="90" width="102" height="44" rx="8" fill="#ffffff" stroke="#d8dee6" stroke-width="1"/><rect x="518" y="108" width="62" height="9" rx="4" fill="#8896a8" opacity="0.45"/><rect x="504" y="148" width="102" height="44" rx="8" fill="#ffffff" stroke="#d8dee6" stroke-width="1"/><rect x="518" y="166" width="62" height="9" rx="4" fill="#8896a8" opacity="0.45"/><rect x="504" y="206" width="102" height="44" rx="8" fill="#ffffff" stroke="#d8dee6" stroke-width="1"/><rect x="518" y="224" width="62" height="9" rx="4" fill="#8896a8" opacity="0.45"/><rect x="504" y="264" width="102" height="44" rx="8" fill="#ffffff" stroke="#d8dee6" stroke-width="1"/><rect x="518" y="282" width="62" height="9" rx="4" fill="#8896a8" opacity="0.45"/><rect x="622" y="90" width="102" height="44" rx="8" fill="#ffffff" stroke="#d8dee6" stroke-width="1"/><rect x="636" y="108" width="50" height="9" rx="4" fill="#8896a8" opacity="0.45"/><rect x="622" y="148" width="102" height="44" rx="8" fill="#ffffff" stroke="#d8dee6" stroke-width="1"/><rect x="636" y="166" width="50" height="9" rx="4" fill="#8896a8" opacity="0.45"/><rect x="622" y="206" width="102" height="44" rx="8" fill="#ffffff" stroke="#d8dee6" stroke-width="1"/><rect x="636" y="224" width="50" height="9" rx="4" fill="#8896a8" opacity="0.45"/><rect x="622" y="264" width="102" height="44" rx="8" fill="#ffffff" stroke="#d8dee6" stroke-width="1"/><rect x="636" y="282" width="50" height="9" rx="4" fill="#8896a8" opacity="0.45"/><rect x="740" y="90" width="102" height="44" rx="8" fill="#ffffff" stroke="#d8dee6" stroke-width="1"/><rect x="754" y="108" width="38" height="9" rx="4" fill="#8896a8" opacity="0.45"/><rect x="740" y="148" width="102" height="44" rx="8" fill="#ffffff" stroke="#d8dee6" stroke-width="1"/><rect x="754" y="166" width="38" height="9" rx="4" fill="#8896a8" opacity="0.45"/><rect x="740" y="206" width="102" height="44" rx="8" fill="#ffffff" stroke="#c2410c" stroke-width="2"/><rect x="754" y="224" width="38" height="9" rx="4" fill="#c2410c" opacity="0.85"/><circle cx="828" cy="218" r="7" fill="#c2410c"/><rect x="740" y="264" width="102" height="44" rx="8" fill="#ffffff" stroke="#d8dee6" stroke-width="1"/><rect x="754" y="282" width="38" height="9" rx="4" fill="#8896a8" opacity="0.45"/><rect x="858" y="90" width="102" height="44" rx="8" fill="#ffffff" stroke="#d8dee6" stroke-width="1"/><rect x="872" y="108" width="62" height="9" rx="4" fill="#8896a8" opacity="0.45"/><rect x="858" y="148" width="102" height="44" rx="8" fill="#ffffff" stroke="#d8dee6" stroke-width="1"/><rect x="872" y="166" width="62" height="9" rx="4" fill="#8896a8" opacity="0.45"/><rect x="858" y="206" width="102" height="44" rx="8" fill="#ffffff" stroke="#d8dee6" stroke-width="1"/><rect x="872" y="224" width="62" height="9" rx="4" fill="#8896a8" opacity="0.45"/><rect x="858" y="264" width="102" height="44" rx="8" fill="#ffffff" stroke="#d8dee6" stroke-width="1"/><rect x="872" y="282" width="62" height="9" rx="4" fill="#8896a8" opacity="0.45"/><rect x="976" y="90" width="102" height="44" rx="8" fill="#ffffff" stroke="#d8dee6" stroke-width="1"/><rect x="990" y="108" width="50" height="9" rx="4" fill="#8896a8" opacity="0.45"/><rect x="976" y="148" width="102" height="44" rx="8" fill="#ffffff" stroke="#d8dee6" stroke-width="1"/><rect x="990" y="166" width="50" height="9" rx="4" fill="#8896a8" opacity="0.45"/><rect x="976" y="206" width="102" height="44" rx="8" fill="#ffffff" stroke="#d8dee6" stroke-width="1"/><rect x="990" y="224" width="50" height="9" rx="4" fill="#8896a8" opacity="0.45"/><rect x="976" y="264" width="102" height="44" rx="8" fill="#ffffff" stroke="#d8dee6" stroke-width="1"/><rect x="990" y="282" width="50" height="9" rx="4" fill="#8896a8" opacity="0.45"/>
</svg>